<?xml version="1.0" standalone="no"?>
<!DOCTYPE svg PUBLIC "-//W3C//DTD SVG 20010904//EN"
 "http://www.w3.org/TR/2001/REC-SVG-20010904/DTD/svg10.dtd">
<svg version="1.0" xmlns="http://www.w3.org/2000/svg"
 width="1024.000000pt" height="1024.000000pt" viewBox="0 0 1024.000000 1024.000000"
 preserveAspectRatio="xMidYMid meet">
<metadata>
Created by potrace 1.14, written by Peter Selinger 2001-2017
</metadata>
<g transform="translate(0.000000,1024.000000) scale(0.100000,-0.100000)"
fill="#000000" stroke="none">
<path d="M5365 10142 c155 -91 268 -260 303 -450 11 -60 10 -61 -63 -33 -27
10 -86 27 -130 36 -88 19 -112 33 -198 112 -134 123 -306 210 -444 228 l-48 6
61 -25 c114 -45 184 -98 255 -193 38 -50 65 -103 53 -103 -3 0 -74 18 -157 40
-286 74 -500 103 -782 103 -336 0 -522 -45 -682 -165 -29 -22 -53 -42 -53 -45
0 -2 30 13 66 33 134 75 319 95 493 54 83 -20 309 -103 431 -158 l63 -29 -80
-12 c-54 -8 -88 -8 -106 -2 -54 21 -261 43 -472 51 -121 4 -236 13 -255 19
-19 6 -44 11 -55 11 -16 -1 -15 -4 9 -17 l29 -15 -68 -24 c-94 -33 -142 -63
-203 -128 -52 -54 -108 -154 -100 -178 2 -6 17 10 32 36 34 57 122 118 198
136 73 18 172 16 243 -4 54 -16 105 -48 105 -67 0 -3 -10 -9 -22 -12 -363 -83
-444 -109 -733 -239 -487 -219 -669 -274 -891 -266 -62 1 -111 2 -109 0 10
-10 189 -64 276 -84 141 -31 424 -31 599 0 63 11 119 16 123 12 17 -15 -49
-70 -153 -128 -58 -33 -141 -80 -185 -106 -86 -50 -200 -97 -292 -121 -124
-32 -259 -11 -377 60 -32 19 -61 33 -63 31 -9 -8 114 -99 176 -130 78 -39 127
-52 247 -66 56 -6 118 -21 169 -41 44 -18 81 -33 83 -35 2 -1 -46 -51 -106
-111 -101 -99 -151 -164 -234 -306 -22 -38 -35 -48 -84 -67 -32 -11 -83 -25
-114 -29 l-55 -8 30 -12 c17 -7 52 -15 79 -18 45 -6 47 -7 25 -16 -34 -14
-167 -12 -230 3 -30 7 -78 23 -107 36 -28 13 -52 21 -52 19 0 -10 126 -78 186
-101 85 -32 224 -63 282 -64 37 0 43 -3 38 -17 -14 -47 -27 -205 -21 -263 8
-87 36 -210 47 -204 4 3 8 24 8 48 0 122 114 343 237 457 92 87 88 91 85 -97
-2 -146 -5 -170 -23 -207 -48 -93 -240 -259 -374 -324 -38 -18 -75 -33 -83
-33 -7 0 -10 -5 -6 -11 10 -17 190 -4 245 17 46 18 119 69 181 127 l36 35 7
-87 c18 -222 74 -363 188 -468 37 -34 95 -73 110 -73 2 0 -12 30 -30 68 -42
85 -70 196 -78 309 l-6 88 34 -83 c19 -45 66 -135 105 -200 71 -117 122 -243
122 -302 0 -27 -6 -33 -42 -49 -51 -22 -91 -63 -111 -111 -23 -54 -57 -231
-68 -354 -23 -240 4 -284 296 -486 196 -135 237 -166 329 -250 84 -77 122 -89
163 -51 21 20 21 20 27 -2 9 -33 7 -98 -3 -135 -13 -43 -1 -40 29 8 14 22 28
40 32 40 7 0 17 -79 27 -227 l7 -98 19 38 c17 35 35 49 35 28 0 -21 50 -305
55 -309 2 -3 7 1 9 9 2 8 12 38 21 67 9 28 20 52 24 52 11 0 99 -150 116 -199
8 -24 15 -58 16 -75 l0 -31 22 29 c60 79 53 78 80 15 29 -63 50 -173 69 -342
11 -104 10 -120 -3 -127 -8 -5 -37 -36 -64 -70 -43 -54 -198 -186 -325 -278
-39 -28 -53 -32 -106 -32 -75 0 -200 -31 -279 -70 -33 -16 -102 -65 -153 -109
-55 -48 -106 -82 -125 -87 -18 -3 -50 -23 -73 -44 -23 -21 -51 -43 -64 -50
-21 -11 -25 -9 -49 21 -14 19 -46 56 -71 83 -54 56 -117 79 -183 64 -41 -9
-803 -352 -874 -394 -57 -33 -91 -79 -163 -224 l-62 -125 -207 -138 c-230
-153 -421 -294 -432 -317 -3 -8 -12 -31 -18 -50 -82 -235 -121 -323 -163 -368
-69 -74 -86 -110 -137 -289 -68 -236 -156 -526 -323 -1058 -27 -88 -56 -179
-63 -202 l-13 -43 2964 0 2964 0 0 78 c0 88 14 256 35 417 66 502 69 516 115
560 29 27 38 30 113 33 45 2 161 -4 257 -13 96 -9 200 -18 230 -21 171 -16
550 -70 700 -100 138 -28 184 -64 196 -156 7 -52 -28 -414 -57 -594 -11 -71
-23 -146 -26 -167 l-5 -37 1181 0 c650 0 1181 2 1181 4 0 2 -77 231 -170 508
-94 276 -205 606 -247 732 -70 207 -81 234 -123 285 -26 31 -52 66 -58 77 -21
40 -82 219 -82 241 0 63 -450 372 -875 599 -116 63 -433 218 -620 304 -441
204 -533 250 -597 301 -27 21 -61 39 -74 39 -15 0 -45 19 -79 50 -30 27 -72
57 -92 66 -56 24 -349 122 -418 140 -35 9 -73 27 -90 43 -16 15 -42 35 -57 44
-14 9 -57 56 -95 104 l-68 87 -7 161 c-3 88 -7 232 -7 320 l-1 160 37 63 c20
34 39 62 42 62 3 -1 18 -19 33 -40 15 -22 31 -40 35 -40 5 0 9 29 9 65 1 52 8
79 39 142 l37 78 21 -37 c24 -42 37 -48 37 -18 0 31 42 220 49 220 3 0 21 -26
39 -58 l33 -57 -6 145 c-3 80 -9 163 -12 184 l-6 39 37 -39 c33 -34 36 -36 30
-14 -11 39 -21 215 -12 218 4 2 8 29 8 60 l0 57 59 0 c71 0 88 13 162 122 27
39 121 150 210 245 165 176 224 254 255 335 16 40 16 54 5 117 -25 147 -129
417 -188 487 -32 38 -79 59 -131 59 l-39 0 14 93 c8 50 29 153 46 227 17 74
32 167 33 205 5 139 4 132 15 112 5 -9 18 -53 27 -98 l18 -80 23 68 c15 44 25
101 28 164 6 99 5 105 -63 332 -10 31 13 18 74 -44 76 -76 108 -130 131 -221
l18 -71 11 49 c30 137 21 240 -31 344 l-32 65 61 -3 c59 -3 174 21 144 31 -79
24 -103 35 -156 71 -34 22 -95 68 -136 102 -60 50 -76 69 -87 105 -15 51 -64
144 -93 176 l-20 21 44 -5 c72 -9 189 -50 257 -90 82 -48 144 -112 181 -187
30 -58 30 -59 30 -24 0 54 -35 179 -71 249 -59 118 -160 231 -279 311 l-65 44
3 95 3 94 -20 -40 c-10 -22 -30 -53 -43 -69 -24 -28 -26 -29 -71 -18 -25 7
-63 12 -84 12 l-38 1 62 58 61 59 -42 6 c-24 4 -63 2 -87 -3 -24 -6 -47 -11
-51 -11 -5 0 -8 31 -8 68 0 133 -57 288 -154 420 -25 34 -48 62 -50 62 -2 0 2
-17 10 -37 15 -45 18 -199 4 -263 -15 -66 -53 -160 -65 -160 -6 0 -19 6 -28
13 -15 11 -15 17 3 82 40 139 36 307 -10 440 -24 68 -92 205 -133 264 -51 75
-123 138 -200 175 -83 40 -145 59 -85 26 21 -11 67 -48 103 -81 116 -109 164
-245 144 -411 -8 -77 -30 -156 -53 -197 -13 -24 -14 -24 -40 30 -15 30 -45 77
-66 104 -21 28 -64 94 -96 147 -100 170 -297 375 -469 490 -147 99 -326 180
-445 203 -34 6 -34 5 15 -23z m750 -2291 c-14 -6 2 -10 52 -15 132 -13 261
-61 346 -128 40 -32 199 -209 193 -215 -4 -4 -65 26 -100 50 l-28 20 11 -22
c14 -26 7 -42 -17 -35 -9 3 -2 -4 16 -17 34 -22 132 -143 132 -162 0 -6 -22
-8 -55 -4 -30 3 -55 4 -55 1 0 -2 23 -32 51 -66 62 -78 74 -98 57 -98 -7 0
-49 11 -93 25 -72 22 -77 22 -55 5 14 -11 53 -36 88 -56 34 -20 62 -38 62 -40
0 -2 -15 3 -32 10 -18 7 -46 16 -63 20 l-30 6 30 -26 c77 -68 175 -166 159
-159 -61 25 -64 17 -14 -36 57 -62 76 -97 102 -194 26 -91 35 -366 19 -526
-11 -107 -78 -464 -80 -426 -1 20 -21 24 -21 3 0 -7 -9 -42 -21 -77 -11 -35
-33 -113 -49 -173 -16 -63 -30 -102 -33 -90 -2 10 -5 -19 -6 -66 -1 -89 -8
-130 -21 -130 -4 0 -11 12 -15 28 -7 25 -8 24 -21 -23 -8 -27 -14 -69 -14 -93
0 -39 -2 -43 -20 -37 -18 6 -20 2 -20 -35 l0 -42 -26 17 c-31 20 -44 9 -44
-37 0 -36 -14 -38 -79 -11 -63 25 -110 31 -93 11 6 -7 26 -47 45 -88 l34 -76
-46 23 c-66 32 -73 31 -57 -15 13 -35 12 -38 -4 -38 -10 0 -17 3 -14 7 2 4 -9
9 -24 13 -15 3 -67 39 -116 81 -87 72 -252 172 -213 128 9 -11 17 -30 17 -42
l0 -22 -27 19 c-33 23 -103 59 -141 72 -25 9 -26 9 -8 -5 11 -8 16 -18 13 -22
-8 -7 -59 9 -121 38 -43 21 -56 18 -36 -6 12 -14 10 -15 -16 -9 -16 4 -38 10
-49 14 -37 13 -220 -4 -249 -23 -14 -10 -26 -22 -26 -27 0 -6 -11 -3 -24 5
-20 14 -34 15 -81 6 -31 -6 -60 -13 -66 -16 -5 -4 -9 -4 -9 -1 0 3 12 12 28
21 l27 16 -30 -6 c-16 -3 -47 -17 -67 -31 -21 -13 -38 -20 -38 -15 0 6 5 13
10 16 6 3 10 11 10 17 0 5 -15 0 -32 -11 -18 -12 -78 -44 -133 -72 -54 -27
-106 -56 -115 -64 -18 -17 -40 -20 -40 -6 0 5 7 14 15 21 33 28 4 19 -46 -13
-86 -55 -143 -111 -202 -198 -53 -77 -56 -80 -63 -55 -7 30 -12 32 -28 10 -7
-9 -24 -17 -39 -17 -15 -1 -27 -7 -27 -13 0 -6 -8 -18 -17 -25 -11 -10 -14
-10 -9 -1 4 6 2 12 -3 12 -15 0 -14 29 5 84 9 26 14 49 12 51 -2 3 -29 -4 -59
-15 -29 -11 -57 -20 -61 -20 -10 0 17 86 36 115 21 32 18 31 -55 -6 -33 -16
-66 -28 -72 -26 -7 2 -22 -10 -34 -27 -14 -17 -23 -24 -23 -15 0 8 -20 42 -43
75 -24 32 -52 80 -63 105 -15 39 -20 44 -29 32 -12 -17 -14 -15 -104 207 -82
199 -133 310 -142 310 -5 0 -7 -12 -3 -27 10 -51 -96 187 -135 301 -21 62 -53
173 -70 246 -17 74 -38 160 -46 190 -15 55 -20 120 -9 120 3 0 42 -32 86 -70
45 -39 83 -68 85 -66 2 2 -12 31 -32 65 -20 34 -42 76 -50 95 -16 38 -23 32
103 86 78 33 196 53 225 38 10 -5 30 -10 45 -11 48 -4 37 -32 -31 -81 -58 -41
-127 -112 -127 -131 0 -3 19 13 43 37 44 44 147 107 147 90 0 -5 -18 -21 -40
-36 -51 -34 -220 -199 -220 -215 0 -7 20 4 45 25 25 20 48 35 50 32 3 -3 -4
-31 -16 -62 -28 -71 -89 -142 -131 -151 -39 -9 -19 -24 32 -25 55 -1 82 -19
149 -98 52 -61 65 -71 81 -62 14 8 26 2 59 -30 44 -43 52 -56 24 -41 -10 5
-29 8 -43 6 -14 -1 -35 -3 -47 -4 -13 0 -23 -6 -23 -11 0 -6 3 -9 8 -9 4 1 18
1 31 0 l24 -1 -24 -26 -24 -26 39 20 c30 16 44 19 58 11 18 -10 18 -12 4 -28
-23 -26 -20 -32 10 -16 32 16 70 5 66 -19 -2 -14 1 -14 25 -4 15 6 82 12 148
14 128 2 267 29 337 65 47 24 50 33 5 14 -118 -49 -351 -57 -479 -16 -56 18
-74 30 -118 78 -28 30 -61 77 -74 102 l-23 46 21 22 c14 15 28 21 42 17 15 -4
31 6 62 40 23 25 42 41 42 36 0 -5 7 -7 15 -4 20 8 19 21 -2 27 -14 4 -13 5 4
6 18 1 24 -10 42 -68 17 -56 50 -114 97 -170 1 -2 17 13 33 32 30 34 71 55 71
35 0 -5 5 -6 10 -3 6 3 10 -1 10 -9 0 -9 4 -16 10 -16 5 0 7 7 4 15 -11 27 5
65 26 65 22 0 45 -43 35 -68 -4 -11 1 -13 17 -9 13 3 41 9 63 13 21 4 46 16
55 26 13 16 17 17 34 5 16 -12 17 -16 5 -35 -7 -12 -36 -34 -64 -49 -65 -35
-164 -38 -218 -5 -37 21 -47 20 -47 -8 0 -38 140 -72 215 -51 56 15 127 62
145 96 14 26 13 29 -8 43 -27 18 -29 35 -2 28 11 -3 29 -8 39 -11 17 -5 21 2
31 52 7 32 10 82 7 111 l-6 54 31 -41 c35 -48 47 -48 23 -1 -9 18 -15 34 -12
36 4 4 34 -35 50 -66 15 -30 -4 71 -23 123 -23 61 -78 130 -121 153 -17 8 -27
20 -23 26 4 6 3 8 -3 5 -6 -4 -39 5 -74 19 -34 14 -81 29 -103 34 -32 6 -35 8
-13 9 34 1 188 -47 202 -64 6 -7 21 -16 35 -20 35 -11 143 -88 174 -125 36
-44 33 -22 -5 31 -27 37 -28 41 -7 21 22 -20 26 -21 38 -7 7 9 8 15 2 15 -6 0
-13 -6 -16 -12 -3 -7 -3 -3 0 10 3 14 1 22 -7 22 -8 0 -6 7 5 19 10 11 26 17
39 15 12 -2 16 -2 10 2 -20 9 -15 34 6 34 39 0 131 140 131 198 0 24 -48 118
-55 110 -2 -2 0 -20 4 -41 5 -20 7 -37 4 -37 -2 0 -19 14 -36 31 -35 36 -46
26 -22 -20 19 -38 13 -39 -23 -5 -39 37 -117 74 -184 88 -32 6 -59 16 -59 21
-1 6 -4 15 -9 20 -4 6 -6 19 -4 30 1 11 -2 23 -9 27 -7 4 -12 13 -12 20 -1 7
-7 12 -15 10 -8 -2 -12 0 -7 4 4 4 -1 17 -10 28 -12 14 -8 13 12 -5 66 -56
212 -139 246 -139 7 0 6 8 -5 23 -65 92 -121 230 -132 325 -4 41 0 62 27 123
18 41 42 84 53 97 12 13 19 24 16 25 -11 4 29 48 41 46 18 -3 72 19 80 33 4 6
12 9 19 6 6 -2 -11 -18 -39 -36 -49 -32 -73 -56 -30 -30 12 7 30 18 41 24 11
6 36 24 55 40 20 16 37 27 37 24 2 -13 96 63 96 78 0 15 2 15 10 2 6 -10 10
-11 10 -3 0 7 6 12 13 10 6 -1 12 7 11 19 0 11 5 21 12 21 9 0 7 -15 -7 -51
-35 -89 -110 -199 -189 -276 -71 -70 -178 -140 -213 -140 -9 0 -19 -5 -23 -12
-5 -8 17 -10 87 -5 52 4 105 9 119 12 22 5 23 4 5 -4 -11 -6 -36 -17 -55 -25
-33 -14 -33 -15 -5 -9 29 5 29 5 10 -10 -34 -27 95 16 157 51 72 42 132 97
122 113 -4 7 -3 10 4 5 18 -11 105 115 157 230 15 33 35 77 45 99 10 22 28 67
41 100 32 85 35 88 91 82 44 -6 50 -3 95 33 26 22 49 37 52 35 2 -3 -4 -12
-15 -20 -10 -8 -14 -15 -8 -15 14 0 137 42 197 69 38 17 47 18 47 6 0 -21 5
-19 53 13 23 16 60 32 82 35 38 6 39 5 15 -8 -23 -13 -23 -14 -4 -15 11 0 24
3 28 8 14 14 91 41 116 41 22 0 23 -1 5 -8z m-1832 -1020 c29 -82 55 -121 41
-61 -11 50 -7 134 10 172 11 25 15 28 15 13 2 -40 62 -122 157 -215 53 -52
111 -105 127 -117 l31 -23 -38 0 c-53 0 -243 40 -294 61 -55 24 -63 23 -33 -1
30 -26 27 -25 -104 9 -60 16 -112 28 -114 26 -2 -3 2 -12 10 -22 13 -17 13
-17 -11 -2 -14 9 -40 35 -58 59 -42 55 -39 71 37 164 31 39 86 114 122 166
l64 94 6 -124 c5 -97 12 -141 32 -199z m-671 -143 c52 -65 52 -64 15 -111 -19
-23 -58 -78 -88 -122 l-53 -80 -19 83 c-23 97 -18 115 50 199 24 29 43 57 43
63 0 20 18 9 52 -32z m315 6 c-3 -3 -12 -4 -19 -1 -8 3 -5 6 6 6 11 1 17 -2
13 -5z m3363 -80 c32 -28 91 -133 96 -171 3 -29 2 -29 -46 3 -37 24 -42 25
-72 13 -78 -32 -205 -180 -270 -314 -25 -52 -28 -55 -24 -25 3 19 15 100 26
179 26 178 48 240 100 281 85 68 138 77 190 34z m-2395 -172 c-11 -44 -17 -15
-9 40 8 47 9 49 12 19 2 -19 1 -45 -3 -59z m-837 23 c-5 -5 -88 -24 -88 -20 0
2 -2 9 -5 17 -4 10 6 12 46 9 27 -1 49 -5 47 -6z m255 -52 c-7 -2 -21 -2 -30
0 -10 3 -4 5 12 5 17 0 24 -2 18 -5z m2893 -78 c3 -14 9 -25 13 -25 32 0 89
-272 66 -310 -5 -9 -4 -11 3 -6 7 4 12 1 12 -9 0 -22 -27 -72 -42 -78 -7 -2
-10 -8 -6 -12 9 -10 96 109 126 174 22 48 24 63 19 135 -3 45 -11 94 -17 110
-9 25 -8 27 3 17 8 -6 21 -9 29 -6 20 8 40 -36 67 -142 46 -180 24 -225 -249
-508 -76 -78 -170 -186 -210 -239 -39 -53 -75 -96 -80 -96 -9 0 -46 48 -69 90
-16 30 -17 100 -2 129 7 12 22 21 36 21 45 0 73 18 85 54 11 36 25 46 32 25 2
-6 9 0 15 13 9 19 8 25 -2 25 -7 0 -11 -7 -8 -16 4 -14 3 -14 -6 -1 -7 11 -6
22 6 40 26 41 102 110 108 100 4 -6 12 -7 18 -4 7 4 1 -5 -12 -19 -45 -49 -16
-36 47 22 45 41 61 62 56 74 -4 11 0 19 10 23 20 8 21 46 1 121 -25 96 -36
123 -49 123 -7 0 -14 14 -15 33 -3 54 -4 57 -12 57 -4 0 -10 11 -13 25 -4 16
-11 22 -21 19 -23 -9 -18 7 12 38 33 34 41 35 49 3z m-4121 -105 c-8 -22 -40
-76 -72 -121 l-58 -80 -3 34 c-4 45 34 145 69 179 15 16 38 28 53 28 25 0 25
0 11 -40z m135 20 c45 -23 69 -54 110 -142 29 -63 86 -256 77 -264 -2 -3 -19
17 -36 44 -53 82 -209 214 -282 237 -17 6 -17 7 2 43 37 66 64 102 77 102 7 0
30 -9 52 -20z m890 -24 c0 -2 -8 -10 -17 -17 -16 -13 -17 -12 -4 4 13 16 21
21 21 13z m65 -19 c26 -20 13 -67 -18 -67 -29 0 -47 18 -47 46 0 33 33 43 65
21z m300 -37 c0 -39 -19 -49 -49 -27 -14 10 -17 21 -12 41 5 22 11 27 34 24
24 -3 27 -7 27 -38z m2529 -172 c14 -36 26 -75 26 -86 0 -18 -99 -127 -107
-118 -2 1 6 56 17 120 11 65 20 130 20 144 0 36 13 19 44 -60z m-3775 -22 c-2
-2 -13 8 -23 22 l-19 27 24 -22 c12 -12 21 -24 18 -27z m741 21 c0 -2 -12 -14
-27 -28 l-26 -24 19 27 c16 23 34 36 34 25z m-143 -39 c-3 -7 -5 -2 -5 12 0
14 2 19 5 13 2 -7 2 -19 0 -25z m-700 -20 c-3 -7 -5 -2 -5 12 0 14 2 19 5 13
2 -7 2 -19 0 -25z m-138 -64 c2 -91 25 -158 77 -221 45 -54 166 -156 173 -145
23 30 177 -67 242 -153 40 -53 73 -73 102 -62 14 5 57 -42 70 -77 7 -21 7 -21
-9 -1 l-17 20 8 -20 c4 -11 9 -37 12 -57 3 -21 10 -38 16 -38 6 0 -2 -13 -18
-30 -16 -16 -31 -30 -34 -30 -3 0 -24 17 -46 38 -72 68 -198 168 -275 217
-215 137 -304 209 -352 284 -24 39 -28 55 -27 115 0 105 12 161 43 200 15 20
28 36 30 36 2 0 4 -34 5 -76z m848 44 c-3 -8 -6 -5 -6 6 -1 11 2 17 5 13 3 -3
4 -12 1 -19z m3323 -72 c0 -3 -4 -8 -10 -11 -5 -3 -10 -1 -10 4 0 6 5 11 10
11 6 0 10 -2 10 -4z m-3646 -288 c9 -21 16 -39 16 -42 0 -10 -64 14 -82 31
-37 33 -40 50 -27 145 l12 91 32 -94 c18 -52 40 -111 49 -131z m1849 -693 c29
-25 77 -54 107 -65 101 -37 101 -37 25 -45 -198 -20 -199 -21 -32 -20 129 0
166 3 162 13 -6 16 -5 16 59 -8 61 -23 82 -28 141 -35 23 -2 59 -12 80 -22 22
-9 51 -18 65 -20 14 -1 26 -7 28 -13 2 -5 8 -8 12 -5 17 11 40 -54 40 -112 0
-41 -3 -54 -10 -43 -8 12 -10 9 -10 -12 0 -14 -3 -33 -6 -42 -7 -19 -34 -21
-35 -3 0 6 -9 -19 -19 -56 -10 -38 -21 -71 -24 -75 -4 -3 -20 5 -37 17 -17 13
-32 21 -34 19 -2 -2 2 -28 10 -59 l13 -56 -77 28 c-42 16 -81 29 -86 29 -6 0
-28 12 -49 27 l-40 26 24 -39 24 -39 -31 23 c-37 26 -109 124 -148 201 -23 46
-29 52 -37 37 -9 -16 -12 -16 -34 5 -31 29 -64 33 -64 7 0 -21 -27 -23 -53 -4
-29 22 -82 -8 -98 -56 -14 -44 -29 -59 -29 -29 0 39 -18 30 -22 -12 -7 -56
-46 -147 -62 -141 -7 3 -18 -7 -26 -21 -7 -14 -21 -25 -29 -25 -9 0 -40 -16
-69 -35 l-52 -36 0 31 0 31 -55 -41 -55 -41 0 30 c0 16 -3 36 -6 45 -7 18 -31
21 -36 5 -2 -6 -19 26 -38 70 -18 45 -37 81 -41 81 -3 0 -14 -10 -22 -22 -15
-22 -16 -21 -16 30 -1 29 6 69 14 88 19 46 52 88 57 72 3 -7 21 4 46 27 27 24
40 31 35 19 -7 -18 -6 -18 20 -1 15 9 38 24 52 33 14 9 32 14 40 10 8 -3 44 6
80 19 36 14 98 34 138 45 66 19 53 21 -33 5 -33 -6 -32 -5 19 25 63 38 133
107 151 149 7 17 15 31 17 31 3 0 28 -20 56 -45z m-898 -1366 c54 -15 128 -93
212 -222 36 -56 103 -158 147 -227 45 -69 120 -183 165 -255 46 -71 93 -140
104 -152 29 -33 47 -13 47 51 0 73 26 154 65 201 35 43 54 57 304 219 181 117
206 125 279 86 83 -44 106 -85 106 -185 0 -124 -72 -268 -225 -452 -73 -87
-113 -123 -136 -123 -8 0 -12 -4 -9 -8 7 -11 -20 -11 -189 -1 -424 26 -826
113 -1068 232 -49 24 -88 45 -87 48 1 2 -10 30 -24 62 -22 48 -27 74 -28 147
-1 50 -5 90 -10 90 -9 0 -11 263 -2 297 6 21 7 21 56 -13 27 -20 56 -33 63
-30 7 2 19 31 25 63 16 76 38 133 63 161 23 25 75 29 142 11z m-392 -336 c-9
-323 18 -598 81 -843 67 -256 235 -608 432 -907 41 -62 74 -117 74 -122 0 -5
4 -11 8 -13 4 -1 48 -61 97 -133 81 -118 300 -413 315 -425 4 -3 25 -31 48
-62 24 -32 58 -73 77 -93 19 -19 35 -38 35 -42 0 -17 -128 119 -219 232 -267
332 -556 767 -697 1047 -218 435 -294 782 -281 1298 4 186 15 280 33 280 2 0
0 -98 -3 -217z m-58 -113 c0 -137 -2 -250 -5 -250 -32 1 -370 334 -370 365 0
15 22 25 53 25 23 0 262 80 293 99 11 6 21 11 24 11 3 0 5 -112 5 -250z m2603
105 c38 -111 55 -281 49 -475 -10 -291 -52 -466 -193 -799 -246 -578 -615
-1147 -876 -1347 -72 -56 -75 -45 -5 16 126 109 360 415 507 660 88 148 103
175 178 325 212 425 289 629 339 905 27 149 24 490 -6 630 -39 187 -37 216 7
85z m-360 -115 c45 0 253 39 294 55 21 8 33 -47 49 -230 l12 -138 -27 -22
c-15 -12 -63 -43 -106 -69 -64 -39 -91 -49 -149 -57 -39 -5 -104 -14 -143 -19
-40 -6 -104 -13 -143 -16 -63 -6 -72 -4 -89 15 -40 44 -8 229 73 420 17 40 38
98 47 128 l16 54 58 -61 c56 -58 60 -60 108 -60z m522 44 c61 -20 110 -41 110
-48 -1 -15 -169 -235 -181 -236 -3 0 -9 39 -12 88 -4 48 -13 120 -21 160 -7
39 -12 72 -9 72 2 0 53 -16 113 -36z m-700 -594 c44 -7 44 -7 18 -18 -50 -21
-233 -42 -398 -47 -112 -3 -149 -1 -115 5 28 4 100 24 160 44 103 33 116 35
200 29 50 -3 110 -9 135 -13z m-657 -1931 c29 -13 57 -58 57 -93 0 -15 -9 -52
-21 -84 -11 -31 -26 -107 -33 -169 -8 -68 -20 -122 -30 -137 -33 -51 -103 -42
-126 15 -9 22 -9 47 1 111 7 46 11 136 10 200 -3 114 -2 118 23 143 27 27 77
33 119 14z"/>
<path d="M6265 6992 c-38 -16 -92 -41 -120 -57 -44 -25 -48 -26 -31 -7 l19 22
-49 -21 c-27 -12 -87 -42 -133 -67 -76 -41 -82 -42 -67 -19 16 24 13 23 -57
-14 -41 -22 -117 -54 -168 -73 -52 -19 -102 -37 -111 -41 -30 -12 -21 13 22
59 22 24 40 46 40 49 0 9 -129 -50 -167 -76 -38 -26 -82 -102 -84 -143 -1 -29
-5 -17 -26 86 -4 20 -6 22 -13 9 -5 -9 -14 -37 -20 -63 -12 -55 2 -95 50 -141
37 -36 46 -28 25 20 -26 64 -10 49 20 -17 28 -61 58 -97 83 -98 7 0 18 -11 24
-25 9 -19 14 -22 25 -14 11 10 12 8 7 -6 -5 -13 -4 -16 4 -11 7 4 12 1 12 -9
0 -10 -5 -13 -12 -9 -7 4 -8 3 -4 -4 4 -7 9 -12 10 -12 2 0 28 29 59 64 30 36
57 62 61 59 3 -4 6 -1 6 6 0 7 4 10 9 6 5 -3 12 4 16 15 3 11 14 20 22 20 9 0
14 3 10 6 -3 4 1 13 9 21 8 9 17 13 21 10 3 -3 14 2 25 12 26 24 90 57 162 81
88 30 92 23 6 -9 -82 -31 -143 -63 -177 -94 -13 -11 -23 -18 -23 -14 0 14 -54
-49 -80 -93 -23 -39 -28 -61 -34 -155 l-7 -110 29 60 29 60 -3 -55 -4 -55 18
50 c20 53 23 51 37 -28 9 -55 41 -124 71 -154 l27 -27 24 30 c23 28 23 28 29
7 3 -12 13 -22 22 -22 37 -1 98 -10 121 -17 17 -5 22 -4 17 4 -9 15 56 26 90
15 l28 -9 -45 -22 c-53 -26 -119 -28 -179 -7 -64 23 -83 3 -27 -29 42 -24 142
-32 193 -16 66 22 114 57 111 82 -1 16 5 23 22 28 35 8 63 92 64 193 1 73 9
98 19 59 3 -11 32 -28 79 -46 41 -16 80 -33 87 -39 9 -7 11 -5 6 8 -6 13 -4
16 6 10 8 -5 11 -3 8 6 -3 8 -11 13 -17 11 -7 -1 -9 3 -6 9 5 8 10 8 18 0 6
-6 16 -11 21 -11 6 0 5 5 -2 12 -7 7 -12 19 -12 27 1 9 8 3 16 -13 15 -26 15
-30 0 -38 -9 -5 -16 -17 -15 -26 0 -10 3 -12 6 -4 2 6 8 12 13 12 21 0 -35
-146 -81 -211 -10 -14 -15 -30 -11 -34 4 -5 2 -5 -5 -1 -6 3 -14 2 -18 -3 -11
-19 -111 -70 -180 -92 -56 -19 -93 -23 -185 -24 -63 0 -131 3 -150 7 l-35 7
35 -17 c21 -9 72 -18 125 -20 64 -3 84 -7 70 -13 -17 -8 -16 -8 6 -4 14 2 58
8 97 11 40 4 72 11 72 17 0 5 21 8 50 5 39 -4 48 -2 40 7 -14 17 37 35 68 24
24 -9 29 0 11 18 -17 17 27 36 65 29 l31 -6 -23 18 -23 18 26 12 c14 7 37 12
51 12 16 0 23 4 18 11 -7 12 -84 8 -119 -7 -14 -6 -10 4 16 37 20 24 46 61 58
82 13 20 25 37 27 37 9 0 -8 -45 -24 -63 -8 -9 -13 -20 -9 -23 6 -6 53 66 110
168 33 59 44 70 99 97 56 29 59 31 29 31 -61 0 -141 52 -186 123 -20 31 -16
33 23 13 15 -7 38 -17 52 -21 24 -7 24 -6 -6 23 -17 16 -39 32 -50 34 -10 2
-18 10 -16 17 1 7 -2 10 -8 6 -6 -3 -36 8 -68 25 -100 55 -187 87 -251 95 -35
4 -59 11 -54 15 23 23 204 -29 295 -85 72 -45 84 -45 24 1 -91 69 -234 123
-331 125 l-50 0 40 15 c66 24 282 64 349 64 44 0 92 -10 167 -35 l104 -34 -34
27 c-19 15 -52 39 -74 55 -22 15 -34 27 -27 27 22 0 -19 38 -110 102 -95 66
-110 69 -206 28 -26 -11 -49 -19 -51 -16 -3 2 12 23 32 45 46 50 32 53 -70 13z
m-152 -349 c-7 -2 -21 -2 -30 0 -10 3 -4 5 12 5 17 0 24 -2 18 -5z m-56 -9
c-3 -3 -12 -4 -19 -1 -8 3 -5 6 6 6 11 1 17 -2 13 -5z m117 -200 c21 -21 20
-40 -4 -64 -38 -38 -85 11 -55 56 18 28 37 30 59 8z m336 -84 c0 -3 -6 -7 -13
-7 -7 0 -13 8 -13 18 0 13 3 15 13 7 7 -6 13 -14 13 -18z m-200 -34 c0 -12 -5
-7 -19 24 -11 24 -11 24 3 6 9 -11 16 -24 16 -30z m57 -12 c-3 -3 -12 -4 -19
-1 -8 3 -5 6 6 6 11 1 17 -2 13 -5z m170 -26 c-3 -7 -5 -2 -5 12 0 14 2 19 5
13 2 -7 2 -19 0 -25z m-160 -4 c-3 -3 -12 -4 -19 -1 -8 3 -5 6 6 6 11 1 17 -2
13 -5z m-247 -99 c0 -5 -5 -3 -10 5 -5 8 -10 20 -10 25 0 6 5 3 10 -5 5 -8 10
-19 10 -25z m39 26 c8 -5 9 -11 3 -15 -5 -3 -15 1 -22 9 -14 16 -3 20 19 6z
m-25 -122 c-9 -15 -68 -39 -98 -39 -13 0 -27 7 -30 16 -5 14 0 16 42 12 32 -3
52 0 60 9 15 16 36 18 26 2z m-34 -49 c0 -5 -8 -10 -17 -10 -15 0 -16 2 -3 10
19 12 20 12 20 0z m90 -4 c0 -2 -7 -9 -15 -16 -13 -11 -14 -10 -9 4 5 14 24
23 24 12z"/>
<path d="M4763 6973 c9 -2 25 -2 35 0 9 3 1 5 -18 5 -19 0 -27 -2 -17 -5z"/>
<path d="M4688 6963 c6 -2 18 -2 25 0 6 3 1 5 -13 5 -14 0 -19 -2 -12 -5z"/>
<path d="M5256 6663 c-15 -45 13 -131 55 -168 21 -19 20 -17 -5 26 -15 26 -30
72 -34 105 -6 45 -10 54 -16 37z"/>
<path d="M4984 6567 c0 -40 -3 -85 -7 -102 -5 -26 -4 -25 14 10 15 30 19 53
15 94 -7 81 -21 80 -22 -2z"/>
<path d="M4797 6303 c-10 -10 -8 -25 2 -19 5 4 11 0 14 -6 2 -7 7 -11 10 -8 3
3 0 13 -7 22 -7 10 -16 15 -19 11z"/>
<path d="M4505 5879 c-4 -5 -4 -13 -1 -16 3 -4 6 0 6 8 0 11 2 11 10 -1 6 -9
10 -10 10 -3 0 17 -17 25 -25 12z"/>
<path d="M4496 5839 c2 -4 -2 -10 -8 -12 -8 -4 -9 -6 -2 -6 6 -1 17 5 23 12 8
10 7 14 -4 14 -8 0 -12 -4 -9 -8z"/>
<path d="M3866 5762 c-3 -6 -1 -14 5 -17 14 -9 20 -2 10 14 -6 8 -11 9 -15 3z"/>
<path d="M4223 5566 c-45 -12 -89 -28 -97 -35 -18 -16 -21 -47 -5 -57 7 -4 9
0 5 12 -3 11 -2 25 3 33 9 14 187 61 232 61 40 0 57 -27 100 -169 48 -153 50
-145 -54 -197 -38 -20 -67 -38 -64 -41 9 -8 148 70 161 89 12 20 -41 217 -77
283 -21 38 -25 40 -72 42 -28 1 -87 -8 -132 -21z"/>
<path d="M4216 5487 c3 -10 9 -15 12 -12 3 3 0 11 -7 18 -10 9 -11 8 -5 -6z"/>
<path d="M4000 5378 c-26 -29 -26 -41 10 -150 48 -152 56 -156 194 -114 44 14
83 23 88 20 4 -3 8 1 8 10 0 12 -5 13 -37 1 -61 -21 -149 -45 -165 -45 -8 0
-22 8 -30 18 -16 17 -78 199 -78 226 0 8 12 24 28 35 15 11 22 21 15 21 -7 0
-21 -10 -33 -22z"/>
<path d="M5356 5259 c-16 -24 -10 -53 10 -45 7 3 15 0 18 -7 3 -8 5 -8 5 2 1
11 4 11 18 0 15 -12 16 -12 10 4 -3 9 -2 18 3 18 40 5 54 18 39 35 -18 22 -85
18 -103 -7z"/>
<path d="M5123 5245 c-22 -15 -22 -17 -5 -34 21 -23 72 -34 92 -21 13 8 13 13
0 37 -18 33 -55 41 -87 18z"/>
<path d="M7106 5791 c-14 -15 -15 -21 -4 -27 7 -4 10 -3 5 1 -4 5 0 17 10 27
9 10 14 18 11 18 -3 0 -13 -9 -22 -19z"/>
<path d="M5243 4723 c9 -2 25 -2 35 0 9 3 1 5 -18 5 -19 0 -27 -2 -17 -5z"/>
<path d="M5330 283 c-8 -3 -18 -11 -22 -17 -12 -17 -9 -61 4 -74 18 -18 75
-15 82 4 22 58 -13 106 -64 87z"/>
<path d="M5280 145 c0 -23 41 -75 60 -75 13 0 38 35 45 63 7 27 6 28 -26 26
-19 -1 -44 1 -56 5 -20 6 -23 4 -23 -19z"/>
<path d="M6788 693 c6 -2 18 -2 25 0 6 3 1 5 -13 5 -14 0 -19 -2 -12 -5z"/>
<path d="M6958 683 c6 -2 18 -2 25 0 6 3 1 5 -13 5 -14 0 -19 -2 -12 -5z"/>
<path d="M7123 663 c9 -2 23 -2 30 0 6 3 -1 5 -18 5 -16 0 -22 -2 -12 -5z"/>
<path d="M6888 483 c6 -2 18 -2 25 0 6 3 1 5 -13 5 -14 0 -19 -2 -12 -5z"/>
<path d="M6978 473 c12 -2 32 -2 45 0 12 2 2 4 -23 4 -25 0 -35 -2 -22 -4z"/>
<path d="M7421 334 c0 -11 3 -14 6 -6 3 7 2 16 -1 19 -3 4 -6 -2 -5 -13z"/>
<path d="M6923 253 c9 -2 23 -2 30 0 6 3 -1 5 -18 5 -16 0 -22 -2 -12 -5z"/>
<path d="M6651 204 c0 -11 3 -14 6 -6 3 7 2 16 -1 19 -3 4 -6 -2 -5 -13z"/>
<path d="M6661 159 c-1 -9 9 -24 22 -35 22 -19 22 -19 6 1 -9 11 -19 27 -22
35 -5 13 -6 13 -6 -1z"/>
<path d="M7315 21 c-6 -5 -19 -11 -30 -14 -19 -4 -19 -5 1 -6 12 0 27 6 34 14
14 16 10 20 -5 6z"/>
</g>
</svg>
